<svg width="500" height="500" viewBox="0 0 500 500" fill="none" xmlns="http://www.w3.org/2000/svg">
<path d="M453.64 256.92C453.81 260.06 453.79 263.89 453.64 267.01C452.33 293.1 446.65 319.55 436.08 343.56C418.45 383.57 387.35 417.73 348.93 438.62C348.13 438.2 348.95 437.71 349.16 437.34C370.94 397.77 373.82 355.99 349.39 316.5C331.15 287.02 305.94 271.92 272.86 263.81C272.35 263.68 271.34 263.66 271.47 262.95H346.67C347.53 225.42 324.47 190.42 290.84 174.69C235.41 148.79 169.68 179.72 154.65 238.71C153.18 244.52 151.18 255.41 151.85 261.2C151.93 261.94 151.91 262.51 152.63 262.95H230.09C230.2 263.69 229.21 263.67 228.68 263.81C220.42 266.15 213.1 267.5 205.03 270.95C140.5 298.48 115.63 376.82 152.17 437.07C152.46 437.55 155.67 441.22 153.64 440.63C96.5 409.99 56.39 353.02 47.96 288.41C31.35 161.03 137.11 49.1202 265.16 60.0502C371.47 69.1302 448.17 150.84 453.64 256.92Z" fill="white"/>
</svg>
