<svg width="15" height="15" viewBox="0 0 15 15" fill="none" xmlns="http://www.w3.org/2000/svg">
<path d="M5.9205 0.961076C6.18164 -0.320341 8.0127 -0.320342 8.27383 0.961075V0.961075C8.45281 1.83937 9.49608 2.21908 10.1977 1.66132V1.66132C11.2215 0.847552 12.6241 2.02454 12.0005 3.17401V3.17401C11.5731 3.96187 12.1282 4.92335 13.0242 4.9471V4.9471C14.3315 4.98175 14.6494 6.785 13.4328 7.26468V7.26468C12.599 7.59345 12.4062 8.68681 13.0773 9.28096V9.28096C14.0565 10.1478 13.141 11.7336 11.9007 11.319V11.319C11.0505 11.0349 10.2001 11.7485 10.3323 12.635V12.635C10.5252 13.9285 8.80452 14.5547 8.12086 13.4399V13.4399C7.65228 12.6758 6.54206 12.6758 6.07348 13.4399V13.4399C5.38982 14.5547 3.66918 13.9285 3.86207 12.635V12.635C3.99427 11.7485 3.14379 11.0349 2.29368 11.319V11.319C1.05338 11.7336 0.137843 10.1478 1.11702 9.28096V9.28096C1.78815 8.68681 1.59536 7.59345 0.761492 7.26468V7.26468C-0.455112 6.785 -0.137151 4.98175 1.17014 4.9471V4.9471C2.06617 4.92335 2.62128 3.96187 2.19384 3.17401V3.17401C1.5702 2.02454 2.97287 0.847552 3.99659 1.66132V1.66132C4.69825 2.21908 5.74152 1.83937 5.9205 0.961076V0.961076Z" fill="#BCE068"/>
</svg>
