<svg width="32" height="32" viewBox="0 0 32 32" fill="none" xmlns="http://www.w3.org/2000/svg">
<path d="M10.0002 14.6667C10.7074 14.6667 11.3857 14.3857 11.8858 13.8856C12.3859 13.3855 12.6668 12.7073 12.6668 12C12.6668 11.2928 12.3859 10.6145 11.8858 10.1144C11.3857 9.61431 10.7074 9.33335 10.0002 9.33335H4.00016V14.6667H10.0002ZM11.3335 17.3334H4.00016V22.6667H11.3335C12.0407 22.6667 12.719 22.3857 13.2191 21.8856C13.7192 21.3855 14.0002 20.7073 14.0002 20C14.0002 19.2928 13.7192 18.6145 13.2191 18.1144C12.719 17.6143 12.0407 17.3334 11.3335 17.3334ZM14.0842 15.4294C15.0835 16.0303 15.8584 16.9422 16.2902 18.0255C16.7219 19.1087 16.7867 20.3036 16.4746 21.4272C16.1626 22.5508 15.4908 23.5412 14.5623 24.2467C13.6338 24.9522 12.4996 25.3339 11.3335 25.3334H1.3335V6.66669H10.0002C11.0157 6.66659 12.0102 6.95644 12.8666 7.50216C13.7231 8.04788 14.4059 8.82679 14.8349 9.74729C15.2638 10.6678 15.4211 11.6916 15.2881 12.6984C15.1551 13.7052 14.7374 14.6531 14.0842 15.4307M20.6668 8.00002H28.0002V10H20.6668V8.00002ZM30.6668 19.3334H20.6668V19.6667C20.6665 20.4903 20.9436 21.2901 21.4533 21.9371C21.963 22.5841 22.6757 23.0406 23.4765 23.2331C24.2773 23.4256 25.1197 23.3429 25.8677 22.9983C26.6158 22.6536 27.2261 22.0672 27.6002 21.3334H30.4455C30.0393 22.8111 29.1112 24.0914 27.8333 24.9373C26.5553 25.7832 25.0141 26.1372 23.4951 25.9338C21.9762 25.7304 20.5824 24.9833 19.5721 23.831C18.5617 22.6787 18.0033 21.1992 18.0002 19.6667V17.6667C18.0002 15.987 18.6674 14.3761 19.8552 13.1883C21.0429 12.0006 22.6538 11.3334 24.3335 11.3334C26.0132 11.3334 27.6241 12.0006 28.8118 13.1883C29.9996 14.3761 30.6668 15.987 30.6668 17.6667V19.3334ZM27.8615 16.6667C27.6432 15.8993 27.1806 15.2241 26.544 14.7433C25.9073 14.2625 25.1313 14.0024 24.3335 14.0024C23.5357 14.0024 22.7597 14.2625 22.123 14.7433C21.4863 15.2241 21.0238 15.8993 20.8055 16.6667H27.8615Z" fill="white"/>
</svg>
