<svg width="419" height="458" viewBox="0 0 419 458" fill="none" xmlns="http://www.w3.org/2000/svg">
<g clip-path="url(#clip0_127_1267)">
<path d="M418.313 39.0823C420.241 50.2612 418.062 61.2098 412.864 70.3372C412.864 70.379 412.843 70.4 412.822 70.4209L410.412 74.21L168.304 457.265L164.386 457.935L109.082 376.647L327.551 31.0226L338.26 14.0868C344.924 7.28315 353.705 2.44734 363.827 0.709792C389.498 -3.72827 413.891 13.4588 418.334 39.0823H418.313Z" fill="white"/>
<path d="M170.752 457.998H83.3431C74.0385 457.998 65.614 452.555 61.779 444.097L4.71508 318.408C4.35882 317.675 4.02352 316.942 3.70918 316.189C0.817211 309.385 -0.503035 301.744 0.167566 293.726C2.1165 270.657 21.2286 252.151 44.3644 250.811C61.5485 249.827 76.9095 258.033 85.8788 270.971L92.9201 286.462L130.138 368.462L170.752 457.977V457.998Z" fill="white"/>
<ellipse cx="138.314" cy="71.1765" rx="71.2514" ry="71.1765" fill="white"/>
<ellipse cx="347.876" cy="385.192" rx="71.2514" ry="71.1765" fill="white"/>
</g>
<defs>
<clipPath id="clip0_127_1267">
<rect width="419" height="458" fill="white"/>
</clipPath>
</defs>
</svg>
