<svg width="20" height="20" viewBox="0 0 20 20" fill="none" xmlns="http://www.w3.org/2000/svg">
<g clip-path="url(#clip0_21_117)">
<path d="M6.8251 19.3496C8.6101 19.3496 10.0501 17.9096 10.0501 16.1246V12.8996H6.8251C5.0401 12.8996 3.6001 14.3396 3.6001 16.1246C3.6001 17.9096 5.0401 19.3496 6.8251 19.3496Z" fill="#0ACF83"/>
<path d="M3.6001 9.67458C3.6001 7.88958 5.0401 6.44958 6.8251 6.44958H10.0501V12.8996H6.8251C5.0401 12.8996 3.6001 11.4596 3.6001 9.67458Z" fill="#A259FF"/>
<path d="M3.6001 3.22463C3.6001 1.43963 5.0401 -0.000366211 6.8251 -0.000366211H10.0501V6.44963H6.8251C5.0401 6.44963 3.6001 5.00963 3.6001 3.22463Z" fill="#F24E1E"/>
<path d="M10.0498 -0.000366211H13.2748C15.0598 -0.000366211 16.4998 1.43963 16.4998 3.22463C16.4998 5.00963 15.0598 6.44963 13.2748 6.44963H10.0498V-0.000366211Z" fill="#FF7262"/>
<path d="M16.4998 9.67458C16.4998 11.4596 15.0598 12.8996 13.2748 12.8996C11.4898 12.8996 10.0498 11.4596 10.0498 9.67458C10.0498 7.88958 11.4898 6.44958 13.2748 6.44958C15.0598 6.44958 16.4998 7.88958 16.4998 9.67458Z" fill="#1ABCFE"/>
</g>
<defs>
<clipPath id="clip0_21_117">
<rect width="19.2" height="19.2" fill="white"/>
</clipPath>
</defs>
</svg>
