<svg width="24" height="24" viewBox="0 0 24 24" fill="none" xmlns="http://www.w3.org/2000/svg">
<g clip-path="url(#clip0_21_123)">
<path d="M4.25299 0.299988H19.7529C22.103 0.299988 24.0029 2.19993 24.0029 4.55005V19.4499C24.0029 21.8 22.103 23.7 19.7529 23.7H4.25299C1.90287 23.7 0.00292969 21.8 0.00292969 19.4499V4.55005C0.00292969 2.19993 1.90287 0.299988 4.25299 0.299988Z" fill="#001E36"/>
<path d="M8.60338 6.25018C8.30338 6.25018 8.00338 6.25018 7.69345 6.26031C7.38332 6.27025 7.09326 6.27025 6.82326 6.28037C6.55326 6.29031 6.30332 6.29031 6.06332 6.30025C5.83326 6.31018 5.67332 6.31018 5.50326 6.31018C5.43332 6.31018 5.40332 6.35012 5.40332 6.42025V16.7102C5.40332 16.8002 5.44326 16.8404 5.52332 16.8404H7.46338C7.53332 16.8302 7.58338 16.7702 7.57326 16.7003V13.4903C7.7632 13.4903 7.90326 13.4903 8.00338 13.5002C8.10332 13.5102 8.26326 13.5102 8.50326 13.5102C9.32338 13.5102 10.0734 13.4202 10.7533 13.1702C11.4033 12.9302 11.9634 12.5102 12.3633 11.9502C12.7633 11.3902 12.9633 10.6802 12.9633 9.82018C12.9633 9.37018 12.8834 8.94025 12.7334 8.52025C12.5745 8.09235 12.3255 7.70358 12.0033 7.38025C11.623 7.0108 11.1653 6.73065 10.6633 6.56012C10.1032 6.35012 9.42332 6.25018 8.60338 6.25018ZM8.82651 8.21987C9.18276 8.22662 9.52963 8.28887 9.85326 8.42012C10.1433 8.53018 10.3833 8.73025 10.5534 8.99012C10.7129 9.25908 10.7927 9.56782 10.7834 9.88037C10.7834 10.3202 10.6833 10.6604 10.4733 10.9103C10.2532 11.1602 9.97326 11.3504 9.65338 11.4404C9.28326 11.5604 8.89326 11.6202 8.50326 11.6202H7.9732C7.8532 11.6202 7.72345 11.6102 7.58338 11.6003V8.24031C7.65332 8.23018 7.79338 8.22025 7.99345 8.23037C8.18338 8.22025 8.41326 8.22025 8.67332 8.22025C8.72457 8.219 8.77563 8.21887 8.82651 8.21987ZM17.2134 8.73043C16.5033 8.73043 15.9133 8.84031 15.4434 9.08031C15.0134 9.28037 14.6433 9.60025 14.3934 10.0002C14.1734 10.3703 14.0533 10.7802 14.0533 11.2103C14.0447 11.5641 14.1237 11.9145 14.2833 12.2303C14.4703 12.5666 14.73 12.857 15.0434 13.0802C15.4833 13.3811 15.9607 13.6232 16.4634 13.8002C16.9533 13.9902 17.2833 14.1402 17.4434 14.2701C17.6034 14.4002 17.6834 14.5302 17.6834 14.6702C17.6834 14.8502 17.5734 15.0203 17.4134 15.0902C17.2334 15.1802 16.9634 15.2303 16.5834 15.2303C16.1834 15.2303 15.7833 15.1802 15.4033 15.0803C14.9669 14.9828 14.5485 14.8175 14.1633 14.5904C14.1333 14.5703 14.1033 14.5604 14.0733 14.5804C14.0433 14.6003 14.0334 14.6402 14.0334 14.6702V16.4102C14.0234 16.4903 14.0733 16.5602 14.1434 16.6002C14.4677 16.7517 14.8107 16.8593 15.1634 16.9202C15.6134 17.0102 16.0633 17.0502 16.5232 17.0502C17.2432 17.0502 17.8434 16.9403 18.3333 16.7303C18.7833 16.5503 19.1733 16.2404 19.4533 15.8402C19.7154 15.4469 19.8515 14.983 19.8433 14.5103C19.8531 14.1533 19.7741 13.7993 19.6134 13.4804C19.4233 13.1402 19.1533 12.8603 18.8233 12.6503C18.3405 12.3471 17.8236 12.1021 17.2833 11.9202C17.0421 11.8203 16.8051 11.7102 16.5733 11.5902C16.4433 11.5202 16.3233 11.4302 16.2333 11.3202C16.1733 11.2401 16.1334 11.1503 16.1334 11.0603C16.1334 10.9703 16.1634 10.8704 16.2133 10.7903C16.2834 10.6904 16.3933 10.6202 16.5232 10.5902C16.7133 10.5404 16.9233 10.5102 17.1232 10.5201C17.5033 10.5201 17.8732 10.5702 18.2433 10.6502C18.5834 10.7202 18.9033 10.8302 19.2033 10.9904C19.2433 11.0102 19.2933 11.0102 19.3833 10.9904C19.3989 10.9788 19.4116 10.9637 19.4203 10.9463C19.429 10.9289 19.4335 10.9097 19.4334 10.8902V9.26031C19.4334 9.22018 19.4233 9.18025 19.4133 9.14031C19.3933 9.10037 19.3533 9.06025 19.3134 9.05031C19.0376 8.93758 18.7486 8.86028 18.4533 8.82025C18.0427 8.76046 17.6283 8.73057 17.2134 8.73043Z" fill="#31A8FF"/>
</g>
<defs>
<clipPath id="clip0_21_123">
<rect width="24" height="24" fill="white"/>
</clipPath>
</defs>
</svg>
