<svg width="25" height="25" viewBox="0 0 25 25" fill="none" xmlns="http://www.w3.org/2000/svg">
<g clip-path="url(#clip0_21_129)">
<path d="M20.5146 0H4.08252C1.827 0 -0.00146484 1.82846 -0.00146484 4.08398V19.901C-0.00146484 22.1565 1.827 23.985 4.08252 23.985H20.5146C22.7701 23.985 24.5985 22.1565 24.5985 19.901V4.08398C24.5985 1.82846 22.7701 0 20.5146 0Z" fill="#330000"/>
<path d="M11.9187 14.394H8.10668L7.33101 16.8034C7.32046 16.8474 7.2949 16.8862 7.25875 16.9134C7.22259 16.9405 7.17811 16.9541 7.13296 16.952H5.20215C5.09209 16.952 5.05359 16.8914 5.08665 16.7704L8.38718 7.26495C8.42017 7.16597 8.45316 7.05322 8.48616 6.9267C8.5294 6.70645 8.5515 6.48275 8.55217 6.25837C8.54993 6.24267 8.55136 6.22667 8.55637 6.21163C8.56138 6.19658 8.56982 6.18291 8.58103 6.1717C8.59224 6.16048 8.6059 6.15203 8.62094 6.14701C8.63598 6.14199 8.65198 6.14053 8.66768 6.14277H11.2916C11.3685 6.14277 11.4125 6.17031 11.4236 6.22541L15.1697 16.7869C15.2027 16.8971 15.1697 16.9521 15.0707 16.952H12.9253C12.8885 16.956 12.8514 16.9465 12.8211 16.9253C12.7907 16.904 12.7691 16.8724 12.7603 16.8365L11.9187 14.394ZM8.70073 12.3148H11.3081L11.271 12.1921L11.2113 11.9978L11.1687 11.8613L11.1008 11.6464L10.9563 11.1941L10.8293 10.7931L10.4994 9.74859C10.4173 9.48893 10.3385 9.22824 10.263 8.96658L10.2027 8.75421L10.1321 8.50312L10.0245 8.11394L10.0043 8.04062H9.98791C9.90531 8.43672 9.80476 8.82887 9.68656 9.21585L9.44171 10.0034L9.30699 10.4385L9.17102 10.879C9.14648 10.9586 9.12198 11.0373 9.09751 11.115L9.02447 11.3455L8.95183 11.5705L8.87956 11.79L8.80769 12.004C8.78385 12.0745 8.76006 12.144 8.73629 12.2125L8.70073 12.3148ZM17.3973 7.89206C17.229 7.89879 17.0612 7.86994 16.9048 7.80738C16.7484 7.74482 16.6069 7.64997 16.4897 7.52902C16.3729 7.40275 16.2821 7.25466 16.2226 7.09324C16.1631 6.93182 16.1361 6.76024 16.1431 6.58835C16.1371 6.41818 16.1671 6.24866 16.2311 6.09086C16.2951 5.93306 16.3916 5.79053 16.5144 5.67258C16.7513 5.44519 17.0667 5.31793 17.3951 5.31732L17.4303 5.31771C17.8264 5.31771 18.1372 5.43597 18.3628 5.67248C18.4766 5.79541 18.5651 5.93958 18.6231 6.09674C18.6811 6.25389 18.7076 6.42095 18.701 6.58835C18.708 6.76094 18.6802 6.93317 18.6192 7.09479C18.5583 7.25641 18.4655 7.40411 18.3462 7.52911C18.2259 7.64768 18.0831 7.74098 17.9262 7.80352C17.7693 7.86607 17.6015 7.8966 17.4326 7.89331L17.3973 7.89206ZM16.2586 16.7869V8.89874C16.2585 8.7997 16.3026 8.75017 16.3906 8.75017H18.4205C18.5085 8.75017 18.5525 8.7997 18.5526 8.89874V16.7869C18.5526 16.8971 18.5085 16.9521 18.4205 16.952H16.4072C16.3134 16.952 16.264 16.9026 16.2591 16.8038L16.2586 16.7869Z" fill="#FF9A00"/>
</g>
<defs>
<clipPath id="clip0_21_129">
<rect width="24.6" height="24.0234" fill="white"/>
</clipPath>
</defs>
</svg>
