<svg width="25" height="25" viewBox="0 0 25 25" fill="none" xmlns="http://www.w3.org/2000/svg">
<g clip-path="url(#clip0_21_126)">
<path d="M20.5175 0H4.08545C1.82993 0 0.00146484 1.82846 0.00146484 4.08398V19.901C0.00146484 22.1565 1.82993 23.985 4.08545 23.985H20.5175C22.773 23.985 24.6015 22.1565 24.6015 19.901V4.08398C24.6015 1.82846 22.773 0 20.5175 0Z" fill="#00005B"/>
<path d="M9.88266 14.3502H6.07052L5.29485 16.7642C5.28491 16.8056 5.26164 16.8425 5.22864 16.8694C5.19563 16.8962 5.15471 16.9115 5.11218 16.9128L3.16609 16.9127C3.0559 16.9127 3.0174 16.8522 3.05058 16.7311L6.35112 7.26502L6.38408 7.16557L6.39503 7.13155L6.41713 7.06044C6.42809 7.02373 6.43904 6.98481 6.45009 6.94263C6.49333 6.72248 6.51544 6.49868 6.51611 6.2743C6.51388 6.25861 6.51533 6.24262 6.52035 6.22759C6.52536 6.21256 6.53381 6.1989 6.54501 6.18769C6.55622 6.17649 6.56987 6.16805 6.5849 6.16303C6.59993 6.15801 6.61593 6.15656 6.63161 6.15879H9.25555C9.33242 6.15879 9.37644 6.18631 9.38758 6.24134L13.1336 16.7477C13.1666 16.8578 13.1336 16.9128 13.0346 16.9127H10.8892C10.8524 16.9168 10.8154 16.9073 10.785 16.886C10.7547 16.8648 10.7331 16.8332 10.7242 16.7972L9.88266 14.3502ZM6.66467 12.3148H9.27208L9.23489 12.1921L9.17522 11.9978L9.08787 11.7195L8.92018 11.1942L8.76047 10.6893L8.46335 9.74866C8.38126 9.489 8.30246 9.22831 8.22696 8.96665L8.14259 8.66915L8.0515 8.3431L7.96828 8.04069H7.95175C7.86915 8.4368 7.7686 8.82894 7.6504 9.21592L7.53893 9.57368L7.27083 10.4385L7.13495 10.8791C7.11042 10.9587 7.08591 11.0373 7.06144 11.1151L6.98841 11.3455L6.91576 11.5706L6.8435 11.7901L6.77162 12.0041C6.73581 12.1098 6.70016 12.2134 6.66467 12.3148ZM19.2066 13.4107H15.9557C15.9954 13.7323 16.1023 14.0421 16.2692 14.3198C16.4538 14.5949 16.7148 14.8101 17.02 14.9387C17.4337 15.1178 17.8813 15.2055 18.332 15.1958C18.6896 15.1889 19.0458 15.1498 19.3964 15.079C19.71 15.0367 20.0172 14.9566 20.3115 14.8405C20.3666 14.7966 20.3941 14.8241 20.3942 14.9229V16.4907C20.3969 16.5335 20.3883 16.5761 20.3693 16.6145C20.3504 16.6444 20.3251 16.6698 20.2951 16.6887C19.9686 16.8333 19.625 16.9357 19.2727 16.9934C18.7939 17.0832 18.3074 17.1247 17.8204 17.117C17.0636 17.117 16.4256 17.0035 15.9065 16.7764L15.8565 16.754C15.3575 16.5342 14.9167 16.2008 14.5694 15.7804C14.245 15.3842 14.0037 14.9268 13.8598 14.4354C13.7174 13.9504 13.6452 13.4475 13.6454 12.942C13.6438 12.39 13.7302 11.8413 13.9012 11.3164C14.0659 10.8045 14.3263 10.3285 14.6685 9.91375C15.0062 9.5039 15.4284 9.17176 15.9062 8.94003C16.3902 8.70364 16.9624 8.61879 17.6224 8.61879C18.1699 8.60509 18.7136 8.71214 19.215 8.93235C19.6365 9.11211 20.0076 9.39238 20.2959 9.74866C20.5663 10.0975 20.773 10.4913 20.9064 10.9121C21.0364 11.3175 21.1032 11.7405 21.1045 12.1663C21.1045 12.4084 21.0963 12.6285 21.0798 12.8264L21.0651 12.996L21.0497 13.1568L21.0406 13.2383L21.0385 13.2555C21.0342 13.2919 21.0167 13.3254 20.9893 13.3497C20.962 13.3741 20.9266 13.3875 20.89 13.3875L20.8447 13.3885L20.7883 13.3914L20.7444 13.3946L20.6418 13.4033L20.5517 13.4122C20.5271 13.4148 20.5017 13.4172 20.4753 13.4194L20.3935 13.4259L20.3061 13.4316L20.2134 13.4365L20.1152 13.4406L20.064 13.4423L19.9576 13.4452C19.8524 13.4478 19.7446 13.4413 19.634 13.4332L19.4662 13.4209C19.3798 13.4146 19.2932 13.4112 19.2066 13.4107ZM15.9558 11.9073H18.203L18.3945 11.9061L18.5246 11.9042L18.6088 11.9023L18.7034 11.899C18.788 11.8906 18.8697 11.8635 18.9427 11.8198V11.7208C18.9394 11.5917 18.9172 11.4638 18.8767 11.3412C18.7877 11.0597 18.6087 10.8151 18.3672 10.6452C18.1258 10.4752 17.8352 10.3893 17.5401 10.4005C17.2623 10.3837 16.9857 10.4481 16.744 10.5858C16.5022 10.7236 16.3057 10.9287 16.1785 11.1761C16.0654 11.4063 15.9902 11.6532 15.9558 11.9073Z" fill="#9999FF"/>
</g>
<defs>
<clipPath id="clip0_21_126">
<rect width="24.6" height="24.0234" fill="white"/>
</clipPath>
</defs>
</svg>
