<svg width="20" height="20" viewBox="0 0 20 20" fill="none" xmlns="http://www.w3.org/2000/svg">
<g clip-path="url(#clip0_21_132)">
<path d="M0.51416 1.17963C0.51416 1.83083 1.04856 2.35963 1.70616 2.35963H11.5918C12.7182 2.35963 13.6462 2.70363 14.3758 3.39163C15.1043 4.08017 15.4686 4.9655 15.4686 6.04763C15.4686 7.04763 15.104 7.86683 14.375 8.50523C13.6464 9.1287 12.7187 9.44017 11.5918 9.43963H7.29576C6.63656 9.43963 6.10296 9.96763 6.10296 10.6196C6.10296 11.2716 6.63656 11.7996 7.29576 11.7996H12.0398L16.3134 18.5852C16.5784 18.9948 16.9512 19.1996 17.4318 19.1996C17.9624 19.1996 18.3352 18.9948 18.5502 18.5852C18.7651 18.1586 18.7238 17.7079 18.4262 17.2332L14.6238 11.1852C15.651 10.726 16.4627 10.054 17.059 9.16923C17.6558 8.2679 17.9542 7.22737 17.9542 6.04763C17.9542 4.85083 17.6806 3.80177 17.1334 2.90043C16.6038 1.9991 15.8584 1.2943 14.8974 0.786034C13.9363 0.261767 12.8344 -0.000366211 11.5918 -0.000366211H1.70696C1.04856 -0.000366211 0.51416 0.527634 0.51416 1.17963Z" fill="white"/>
</g>
<defs>
<clipPath id="clip0_21_132">
<rect width="19.2" height="19.2" fill="white"/>
</clipPath>
</defs>
</svg>
